<svg xmlns="http://www.w3.org/2000/svg" xmlns:xlink="http://www.w3.org/1999/xlink" width="137.713" height="137.86" viewBox="0 0 137.713 137.86">
  <defs>
    <rect id="rect-1" width="112.398" height="112.606" x="12.657" y="12.627"/>
    <mask id="mask-2" maskContentUnits="userSpaceOnUse" maskUnits="userSpaceOnUse">
      <rect width="137.713" height="137.86" x="0" y="0" fill="black"/>
      <use fill="white" xlink:href="#rect-1"/>
    </mask>
  </defs>
  <g transform="rotate(15.000005 68.85650298 68.93002701)">
    <use fill="none" xlink:href="#rect-1"/>
    <g mask="url(#mask-2)">
      <path fill="rgb(169,219,245)" fill-rule="evenodd" d="M118.2680478 109.06798248H19.44495817c-3.74865733 0-6.78758116-3.0445464-6.78758116-6.80013943V42.78031397h112.39825197v59.48752908c0 3.75559303-3.03892384 6.80013943-6.78758116 6.80013943z"/>
      <path fill="rgb(136,195,224)" fill-rule="evenodd" d="M118.2711212 42.78031397v66.2876685c3.74712063 0 6.78450777-3.045866 6.78450777-6.80299856V42.78031397h-6.78450777z"/>
      <g>
        <path fill="rgb(67,128,159)" fill-rule="evenodd" d="M35.45973331 64.08422113c-.64299703-.64396676-1.68553472-.64396676-2.32831222 0L22.93852414 74.2959768c-.64299703.64440663-.64299703 1.68865328 0 2.33283997l10.05788733 10.07649626c.32138875.32198338.7428822.48297507 1.16415611.48297507.42127392 0 .84276736-.16099169 1.16415611-.48297507.64299704-.64440663.64299704-1.68865327 0-2.33283996l-8.89373121-8.91018625 9.0285213-9.04522572c.64321657-.6441867.64321657-1.68865327.00021953-2.33283997z"/>
        <path fill="rgb(67,128,159)" fill-rule="evenodd" d="M70.72688015 74.29575687L60.5339832 64.0840012c-.64299703-.64396676-1.68553473-.64396676-2.32831223 0-.64299703.64440663-.64299703 1.68865327 0 2.33283996l9.0285213 9.04522573-8.8937312 8.91018624c-.64299704.64440663-.64299704 1.68865327 0 2.33283997.32138874.32198338.74288219.48297507 1.1641561.48297507.42127392 0 .84276737-.1609917 1.16415612-.48297507l10.05810686-10.07649626c.6427775-.6441867.6427775-1.68843334 0-2.33283997z"/>
        <path fill="rgb(67,128,159)" fill-rule="evenodd" d="M53.44850277 57.94718272c-.85045084-.32352291-1.80078684.10490852-2.12349276.95693285L39.27249277 90.71492983c-.32270592.85158446.1049343 1.80411863.95494608 2.1274216.19230639.07323803.38966191.10776767.58394405.10776767.6640717 0 1.28994556-.4055583 1.5395487-1.0647005l12.05251725-31.81081427c.32270592-.85158446-.10471477-1.80411862-.95494608-2.1274216z"/>
      </g>
      <path fill="rgb(41,206,246)" fill-rule="evenodd" d="M97.4649315 64.14206377H86.8356132c-1.87345055 0-3.39236364-1.52150343-3.39236364-3.39864014 0-1.87691678 1.51869356-3.39864014 3.39236364-3.39864014H97.4649315c1.87345055 0 3.39236365 1.52150343 3.39236365 3.39864014 0 1.87691678-1.5189131 3.39864014-3.39236365 3.39864014z"/>
      <path fill="rgb(255,195,40)" fill-rule="evenodd" d="M114.87875755 77.7364044H86.83561321c-1.87345055 0-3.39236364-1.52150342-3.39236364-3.39864013 0-1.87691678 1.51869356-3.39864015 3.39236364-3.39864015h28.04292481c1.87345055 0 3.39236365 1.52150343 3.39236365 3.39864015.00021953 1.87691677-1.51869357 3.39864014-3.39214412 3.39864014z"/>
      <path fill="rgb(247,142,54)" fill-rule="evenodd" d="M106.54833476 91.33074504H86.83561321c-1.87345055 0-3.39236364-1.52150343-3.39236364-3.39864014 0-1.87691678 1.51869356-3.39864014 3.39236364-3.39864014h19.71272155c1.87345055 0 3.39236365 1.52150343 3.39236365 3.39864014 0 1.87691678-1.5189131 3.39864014-3.39236365 3.39864014z"/>
      <path fill="rgb(67,128,159)" fill-rule="evenodd" d="M125.05562897 45.1193121H12.657377v-9.52710113c0-3.75559303 3.03892383-6.80013943 6.78758116-6.80013943h98.82308965c3.74865732 0 6.78758116 3.0445464 6.78758116 6.80013943v9.52710112z"/>
      <path fill="rgb(58,113,144)" fill-rule="evenodd" d="M118.2711212 28.79207154V45.1193121h6.78450777v-9.52424198c0-3.75713257-3.03760667-6.80299857-6.78450777-6.80299857z"/>
      <ellipse cx="23.514" cy="37.067" fill="rgb(41,206,246)" rx="3.392" ry="3.399"/>
      <ellipse cx="36.667" cy="37.067" fill="rgb(243,243,243)" rx="3.392" ry="3.399"/>
      <ellipse cx="49.82" cy="37.067" fill="rgb(247,142,54)" rx="3.392" ry="3.399"/>
    </g>
  </g>
</svg>
