<svg xmlns="http://www.w3.org/2000/svg" xmlns:xlink="http://www.w3.org/1999/xlink" width="55" height="55" viewBox="0 0 55 55">
  <defs>
    <rect id="rect-1" width="55" height="55" x="0" y="0"/>
    <mask id="mask-2" maskContentUnits="userSpaceOnUse" maskUnits="userSpaceOnUse">
      <rect width="55" height="55" x="0" y="0" fill="black"/>
      <use fill="white" xlink:href="#rect-1"/>
    </mask>
  </defs>
  <g>
    <use fill="none" xlink:href="#rect-1"/>
    <g mask="url(#mask-2)">
      <path fill="rgb(242,156,31)" fill-rule="evenodd" d="M54.0527539 28.44832031h-6.63791992v-7.58624023c0-1.0474707-.84916992-1.8965332-1.8965332-1.8965332H.94928711c-.52368164 0-.94832031.42453125-.94832031.9483203V55h45.24222656c.40111328-.0015039.75958008-.25050781.90083984-.62583984l8.8-24.65514649c.10323243-.29046875.05929688-.61305664-.11773437-.86539062-.17703125-.2524414-.46524414-.40347657-.77354492-.40530274z"/>
      <g>
        <path fill="rgb(210,86,39)" fill-rule="evenodd" d="M47.41483398 19.91375977v8.53445312H9.48374023v-9.48277344h36.98277344c.52303711.00161133.94670899.4252832.94832031.94832032z"/>
        <path fill="rgb(210,86,39)" fill-rule="evenodd" d="M9.48374023 18.96554688v9.48277343l-4.91208007.81554688c-.44902344.07820312-.88923828-.17789063-1.04306641-.6069336L.0009668 18.96554688h9.48277343z"/>
      </g>
      <path fill="rgb(229,126,37)" fill-rule="evenodd" d="M9.48374023 28.44832031L.0009668 55V18.96554688l3.52762695 9.69138671c.15382813.42904297.59404297.68513672 1.0430664.6069336l4.91208008-.81554688z"/>
      <g>
        <ellipse cx="20.863" cy="35.086" fill="rgb(210,86,39)" rx="2.845" ry="2.845"/>
        <ellipse cx="37.932" cy="35.086" fill="rgb(210,86,39)" rx="2.845" ry="2.845"/>
      </g>
      <path fill="rgb(203,178,146)" fill-rule="evenodd" d="M34.13888672 28.44832031H9.48374023v-27.5C9.48524414.42517578 9.90891602.00150391 10.43206055 0h22.75861328c.5230371.0015039.94670898.42517578.94832031.94832031v27.5h-.00010742z"/>
      <path fill="rgb(127,110,93)" fill-rule="evenodd" d="M38.88027344 8.53445312V5.68970703c0-.52368164-.42453125-.94832031-.94832032-.94832031H15.17344727c-.52368165 0-.94832032.42453125-.94832032.94832031v22.75861328h24.65514649V8.53445312z"/>
      <path fill="rgb(203,178,146)" fill-rule="evenodd" d="M18.96651367 28.4482129V10.43098632c.0015039-.52303711.42517578-.94670899.94832031-.94832031h22.75861329c.5230371.0015039.94670898.42517578.9483203.9483203V28.4482129h-24.6552539z"/>
      <ellipse cx="31.294" cy="20.862" fill="rgb(127,110,93)" rx="7.586" ry="7.586"/>
      <ellipse cx="31.294" cy="19.914" fill="rgb(230,231,232)" rx="2.845" ry="2.845"/>
      <path fill="rgb(53,73,94)" fill-rule="evenodd" d="M35.08720703 26.00167969v1.42237304c-2.344375 1.36554688-5.24186523 1.36554688-7.58624023 0V26.0016797c.16263672-1.93746094 1.85388672-3.3834668 3.7930664-3.2430664.97764649-.01353516 1.92736328.3265625 2.67416016.95777343.6953418.55666016 1.10569336 1.39476562 1.11901367 2.28529297z"/>
      <path fill="rgb(229,126,37)" fill-rule="evenodd" d="M36.03552734 43.62069336H22.75958008c-1.5704004-.00171875-2.84313477-1.2743457-2.84485352-2.84485352v-4.74138671c0-.52368165.42453125-.94832032.94832032-.94832032.52378906 0 .9483203.42453125.9483203.94832032v4.74138671c.00053712.5234668.4247461.9477832.94832032.94832032h13.27583984c.5234668-.00053711.9477832-.4247461.94832032-.94832032v-4.74138671c0-.52368165.42453125-.94832032.9483203-.94832032.52378907 0 .94832032.42453125.94832032.94832032v4.74138671c-.0019336 1.57050782-1.27456055 2.84313477-2.84496094 2.84485352z"/>
    </g>
  </g>
</svg>
