<svg xmlns="http://www.w3.org/2000/svg" xmlns:xlink="http://www.w3.org/1999/xlink" width="119.603" height="119.603" viewBox="0 0 119.603 119.603">
  <defs>
    <rect id="rect-1" width="90" height="90" x="14.802" y="14.802"/>
    <mask id="mask-2" maskContentUnits="userSpaceOnUse" maskUnits="userSpaceOnUse">
      <rect width="119.603" height="119.603" x="0" y="0" fill="black"/>
      <use fill="white" xlink:href="#rect-1"/>
    </mask>
  </defs>
  <g transform="rotate(-25.000009 59.8016722 59.8016722)">
    <use fill="none" xlink:href="#rect-1"/>
    <g mask="url(#mask-2)">
      <path fill="rgb(111,101,113)" fill-rule="evenodd" d="M22.05968 98.68202376V44.97241438c0-2.40503906 1.94976563-4.35480469 4.3548047-4.35480469H93.1886839c2.40503907 0 4.3548047 1.94976563 4.3548047 4.3548047v53.70960937"/>
      <path fill="rgb(195,221,255)" fill-rule="evenodd" d="M93.18868391 92.8756175h-2.9033789l-1.71421875-1.614375H31.50089094l-2.18302734 1.614375h-2.90320312c-.80173829 0-1.45160157-.64986327-1.45160157-1.45160156V44.97241438c0-.80173828.64986328-1.45160156 1.45160157-1.45160156h66.77419921c.80173829 0 1.45160157.64986328 1.45160157 1.45160156v46.45160156c0 .80173829-.65003907 1.45160157-1.45177735 1.45160157z"/>
      <path fill="rgb(219,234,255)" fill-rule="evenodd" d="M88.83387923 89.97241438H30.76946516c-1.60347656 0-2.90320312-1.29990234-2.90320312-2.90320312V49.32721907c0-1.60347656 1.29990234-2.90320313 2.90320312-2.90320313h58.06458985c1.60347656 0 2.90320312 1.29990235 2.90320312 2.90320313v37.74199219c-.00017578 1.60347656-1.29990234 2.90320312-2.9033789 2.90320312z"/>
      <path fill="rgb(255,128,134)" fill-rule="evenodd" d="M47.94294173 51.54962141l-4.51212891 5.2641211c-.67658203.78925781-1.04835938 1.79455078-1.04835938 2.8341211v1.72845702c0 1.10689453 1.18898438 1.8065039 2.15666016 1.26896485l6.25376953-3.47431641-2.8499414-7.62134766z"/>
      <path fill="rgb(229,100,110)" fill-rule="evenodd" d="M50.79270735 59.17096907l4.65416016-2.5855664-4.35480469-8.70960938-3.1491211 3.6740039c.67236329 2.63953125 1.62544922 5.19169922 2.84976563 7.62117188z"/>
      <path fill="rgb(255,128,134)" fill-rule="evenodd" d="M68.51128157 47.8756175l7.66125 8.938125c.67658203.78925782 1.04835937 1.79455079 1.04835937 2.8341211v1.72845703c0 1.10689453-1.18898437 1.8065039-2.15666015 1.26896485L64.1563011 56.58540266l4.35498047-8.70978515z"/>
      <path fill="rgb(218,216,219)" fill-rule="evenodd" d="M16.25327376 97.2304222v3.1714453h85.64519531l2.90320312-1.71984374v-1.45160157c0-.80173828-.64986328-1.45160156-1.45160156-1.45160156H17.70487532c-.80173828 0-1.45160156.65003906-1.45160156 1.45160156z"/>
      <path fill="rgb(255,224,125)" fill-rule="evenodd" d="M67.48050032 29.00462141l-12.6740039-2.2348828c-2.21220704 4.58455077-3.46464844 9.78222655-3.46464844 15.29947265 0 7.00875 2.02904296 13.49542968 5.47154296 18.8709961l9.34189454-2.90320313c2.42208984-4.74503907 3.80759765-10.17808594 3.80759765-15.96779297 0-4.63886719-.88541015-9.05185547-2.48238281-13.06458985z"/>
      <path fill="rgb(255,208,100)" fill-rule="evenodd" d="M58.9334886 58.03700423c-1.17105469 0-2.20957031-.7106836-2.68277344-1.78189454-1.90160156-4.3059375-2.98125-9.10423828-2.98125-14.18572265 0-4.64414063.89419922-9.05519531 2.50101563-13.06511719l-.8906836-.89226562-2.7571289.89279296c-1.59679688 4.0125586-2.48220703 8.42554688-2.48220703 13.06441407 0 7.00875 2.02904297 13.49542968 5.47154297 18.8709961l4.42599609 1.78611327 4.95333984-1.78611328c.59660157-.93164062 1.15541016-1.90792969 1.66394532-2.90320312H58.9334886z"/>
      <path fill="rgb(200,197,201)" fill-rule="evenodd" d="M63.85079329 66.7466136h-8.0980664c-.91160157 0-1.59767579-.8305664-1.42541016-1.72582031l.78486328-4.08076172h9.37951172l.78486328 4.08076172c.17191406.8952539-.51416016 1.72582031-1.42576172 1.72582031z"/>
      <path fill="rgb(195,221,255)" fill-rule="evenodd" d="M63.6688597 40.57770735c0 1.76625-.56390626 3.32683594-2.07509766 4.00992188-.5465039.24714843-1.15330078.38460937-1.79208985.38460937-2.40503906 0-4.35480468-1.94976562-4.35480468-4.35480469 0-.6365039.13658203-1.24101562.38197265-1.7859375.68185547-1.51453125 2.20429688-2.09179687 3.97300782-2.09179687 2.40486328.00017578 3.86701171 1.43296875 3.86701171 3.83800781z"/>
      <path fill="rgb(200,197,201)" fill-rule="evenodd" d="M17.70487532 95.77882063h-1.45160156c-.80173828 0-1.45160157.64986328-1.45160157 1.45160156v1.45160157c0 1.60330078 1.29990235 2.90320312 2.90320313 2.90320312h84.19359375c1.60330078 0 2.90320312-1.29990234 2.90320312-2.90320312H20.60807844c-1.60330078 0-2.90320312-1.29972657-2.90320312-2.90320313z"/>
      <path fill="rgb(111,101,113)" fill-rule="evenodd" d="M29.47968 98.68202376h-7.42"/>
      <path fill="rgb(255,255,255)" fill-rule="evenodd" d="M80.12426985 82.71440657c-1.16507812 0-2.27970703.20566406-3.32191406.56671875-.97646485-2.85521484-3.65326172-4.92152344-6.83929688-4.92152344-1.77679687 0-3.38291015.66357422-4.64449218 1.72353516.17138671-.54791016.2896875-1.11919922.2896875-1.72353516 0-3.20677734-2.59962891-5.80640625-5.80640625-5.80640625-3.20677735 0-5.80640625 2.5996289-5.80640625 5.80640625 0 .60433594.11830078 1.175625.2896875 1.72353516-1.26158204-1.05996094-2.8678711-1.72353516-4.6444922-1.72353516-3.18621093 0-5.86283202 2.0663086-6.83929687 4.92152344-1.04220703-.3608789-2.15701172-.56671875-3.32191406-.56671875-5.6118164 0-10.16121094 4.54939453-10.16121094 10.16121094h60.96779297c-.00052734-5.61199219-4.54992187-10.16121094-10.16173828-10.16121094z"/>
      <path fill="rgb(255,128,134)" fill-rule="evenodd" d="M61.63858626 19.35387923s-5.57226563 1.94660156-5.86810547 9.65021484l11.71001953.00052734c-1.423125-3.57521484-3.41173828-6.834375-5.84191406-9.65074218z"/>
      <path fill="rgb(229,100,110)" fill-rule="evenodd" d="M61.63876204 19.35370344c-.25927735-.30058593-.52189453-.59361328-.79101563-.8840039-.55828125-.60222656-1.5336914-.60222656-2.09197265 0-2.79123047 3.0102539-5.05845703 6.57914062-6.63310547 10.53492187l3.6478125-.00052734c1.4278711-3.55939453 3.44460937-6.84105469 5.86828125-9.65039063z"/>
      <path fill="rgb(164,204,255)" fill-rule="evenodd" d="M59.8016722 36.262805c-1.76695313 0-3.2897461 1.05679688-3.97265626 2.5688672.54615235-.2466211 1.1569922-.39146485 1.79525391-.39146485 2.40503906 0 4.35480469 1.94976563 4.35480469 4.35480469 0 .63826172-.13851563 1.24664062-.3853125 1.79279297 1.51207031-.68291016 2.56271484-2.20324219 2.56271484-3.97019532 0-2.40521484-1.94976562-4.35480468-4.35480469-4.35480468z"/>
    </g>
  </g>
</svg>
