<svg xmlns="http://www.w3.org/2000/svg" xmlns:xlink="http://www.w3.org/1999/xlink" width="113.613" height="113.531" viewBox="0 0 113.613 113.531">
  <defs>
    <rect id="rect-1" width="85.547" height="85.376" x="14.033" y="14.077"/>
    <mask id="mask-2" maskContentUnits="userSpaceOnUse" maskUnits="userSpaceOnUse">
      <rect width="113.613" height="113.531" x="0" y="0" fill="black"/>
      <use fill="white" xlink:href="#rect-1"/>
    </mask>
  </defs>
  <g transform="rotate(25.000009 56.80659343 56.76527875)">
    <use fill="none" xlink:href="#rect-1"/>
    <g mask="url(#mask-2)">
      <path fill="rgb(235,235,235)" fill-rule="evenodd" d="M49.6585083 94.93026733c0 2.42825318 1.97158814 4.3970337 4.4048462 4.3970337h5.87316894c2.43255615 0 4.40484619-1.96878052 4.40484619-4.3970337v-8.7940979H49.6585083v8.7940979z"/>
      <path fill="rgb(201,223,255)" fill-rule="evenodd" d="M39.1217041 67.44729614c1.12271118 1.03414917 2.33361817 1.97021485 3.61764527 2.79611206 1.94720459 1.22521973 3.31729126 3.18255616 3.80050659 5.42901612l-4.6091919 4.60101318-4.05715942-2.79251099c-.40435791-.27911377-.92196655-.33706665-1.37866211-.15460205-.45669556.18179322-.7915039.57971192-.89257813 1.06063843l-1.013031 4.81784058h-5.87316895l-1.013031-4.81069947c-.10107422-.48019409-.43588257-.87884521-.89257813-1.0606079-.45669555-.18249512-.9743042-.12380982-1.3786621.15457153l-4.05715943 2.78536987-4.4048462-4.3970337 2.79531861-4.04995727c.27890015-.40362549.3369751-.92034912.15487671-1.37548828-.18283081-.45516968-.58145142-.7893982-1.0617981-.8902893l-4.82498169-1.0126648v-5.86273193l4.81924439-1.01339722c.48034668-.1001892.87896728-.4343872 1.06106567-.8902893.18283081-.45516968.12475586-.9711609-.15414428-1.37548829l-2.7895813-4.04925537 4.40484619-4.39703369 4.05715942 2.79180908c.40435791.27838135.92126465.33636475 1.3779602.15386963.45596314-.18179321.7907715-.5796814.89184571-1.059906l1.01446533-4.81713868h1.8690796c-.00073243 3.54827881.71691894 7.06002808 2.10848998 10.32562256-.21435547-.01931763-.43014526-.06585693-.65457153-.06585693-3.80908203-.00570679-6.98724365 2.90130615-7.31344604 6.68933105-.32623292 3.7880249 2.30780029 7.19384766 6.06167602 7.83795166 3.75317383.644104 7.3758545-1.68896484 8.33441162-5.36819458z"/>
      <path fill="rgb(255,180,31)" fill-rule="evenodd" d="M61.9883728 22.12280273c12.44387818 2.38745118 21.43930054 13.25628663 21.44073487 25.90563965.00500488 8.95654297-4.54611206 17.30264283-12.08398438 22.1605835-2.49780273 1.5572815-4.02990723 4.27539062-4.06716919 7.2145996v5.8012085c0 2.42822266-1.97229004 4.3970337-4.4048767 4.3970337H51.12680053c-2.43328858 0-4.40487671-1.96881104-4.40487671-4.3970337v-5.92285156c-.03585816-2.87124634-1.5378418-5.52566528-3.98257446-7.03857422C32.07058716 63.41882324 27.756073 49.9951172 32.4548645 38.24746704c4.69882202-11.74765015 17.08963013-18.51211548 29.5335083-16.1246643z"/>
      <path fill="rgb(28,200,235)" fill-rule="evenodd" d="M92.5220337 32.52285767l4.61636352-3.45596314-5.28598023-7.03570557-4.61636352 3.45596314c-.94995118.71066284-2.2354126.78005981-3.25704956.1760559-1.02163697-.60403442-1.57797242-1.7626953-1.4109192-2.93566894l.81515504-5.70025635-8.72155762-1.24383544-.81515503 5.69955444c-.1670227 1.17440796-1.02664185 2.131958-2.17733765 2.42611694-1.15066528.29483032-2.36587524-.13168335-3.07852173-1.08065796l-3.46136474-4.60818481-7.04748535 5.27661133 3.46066284 4.6081543c.71191406.9489746.7814331 2.2314453.17636108 3.25128173-.60510254 1.01980591-1.76583862 1.5751648-2.94088745 1.40841675l-5.71038818-.81369019-1.24676514 8.7060547 5.71182251.8137207c1.17578125.16744995 2.13504028 1.0255432 2.42971802 2.17419433.29464722 1.1486206-.1326294 2.36169434-1.08328247 3.07305908l-4.6149292 3.45593262 5.28598022 7.03500366 4.61489868-3.4545288c.94995118-.71136475 2.23614502-.78149415 3.2584839-.17749024 1.02163695.60403442 1.57870483 1.76339722 1.4109497 2.93710327l-.82232666 5.69882202 8.7215271 1.24453736.82232666-5.70169068c.16775513-1.17367553 1.02737427-2.13052368 2.17807007-2.42468261 1.15066528-.29483033 2.36587524.13241577 3.0777893 1.08065795l3.4628296 4.6067505 7.04748534-5.27661134-3.46353149-4.60671997c-.71264648-.9482727-.78289795-2.23217773-.17779541-3.25271606.60510254-1.0198059 1.76654053-1.57589722 2.94229126-1.40771484l5.7104187.81445312 1.24676514-8.7060852-5.7104187-.81442261c-1.17504883-.16818238-2.13360596-1.02554322-2.4289856-2.17419434-.29464722-1.1479187.1319275-2.36026 1.08114624-3.07162475zM75.70126342 49.87915039c-5.6767273 0-10.27801514-4.59313965-10.27801514-10.25979614 0-5.66592407 4.60128784-10.25976563 10.27801514-10.25976563 5.67669678 0 10.27801513 4.59384156 10.27801513 10.25976563 0 5.6666565-4.60131835 10.25979614-10.27801513 10.25979614z"/>
      <path fill="rgb(158,158,158)" fill-rule="evenodd" d="M49.65850765 90.53321853H64.3413783v2.93136404H49.65850765v-2.93136404z"/>
      <g>
        <path fill="rgb(255,170,0)" fill-rule="evenodd" d="M55.53164673 78.80776978h2.93658447v4.39703369h-2.93658447v-4.3970337z"/>
        <path fill="rgb(255,170,0)" fill-rule="evenodd" d="M58.46823005 75.87639828H55.5316559c-.00143341-3.87532557-2.39528643-7.34916418-6.02012013-8.7361226-7.22600778-2.82043573-12.24600234-9.4618074-12.97871062-17.17238313-.73271012-7.71057572 2.94589409-15.17567718 9.511604-19.30220232l1.55790396 2.47978009c-5.62938875 3.53610079-8.78462937 9.93557813-8.15659344 16.54617598.62732015 6.60988333 4.93037583 12.30371356 11.12542951 14.72122965 4.75902856 1.81707379 7.90064715 6.37729058 7.89706086 11.46352233z"/>
        <path fill="rgb(255,170,0)" fill-rule="evenodd" d="M86.3656843 68.54798815h7.34143534c.81085603 0 1.46828707.6555501 1.46828707 1.46568203 0 .8094174-.65743104 1.46568202-1.46828707 1.46568202h-7.34143533c-.81085603 0-1.46828707-.65626462-1.46828707-1.46568202 0-.81013192.65743104-1.46568203 1.46828707-1.46568203z"/>
        <path fill="rgb(255,170,0)" fill-rule="evenodd" d="M83.42911018 77.34279665c.51906333-.6219127 1.44462745-.70636163 2.06764735-.18821922l6.55423892 5.45122138c.62301806.51814242.70761709 1.4420644.18855375 2.06397893-.51977913.6219127-1.44534508.70636163-2.06836314.18821922l-6.55423892-5.45122138c-.62301806-.51814058-.70689947-1.4420644-.18783796-2.0639771v-.00000183z"/>
        <path fill="rgb(255,170,0)" fill-rule="evenodd" d="M77.55596191 80.27344435c.81085603 0 1.46828707.6555501 1.46828707 1.46568203v7.32841012c0 .8094174-.65743104 1.46568203-1.46828707 1.46568203s-1.46828707-.65626463-1.46828707-1.46568203v-7.32841012c0-.81013193.65743104-1.46568203 1.46828707-1.46568203z"/>
        <path fill="rgb(255,170,0)" fill-rule="evenodd" d="M15.48857141 38.9208859l8.89718826-2.21856074c.78719642-.19609176 1.58371462.28125706 1.78015491 1.06634047.1964403.78508525-.28175694 1.58018844-1.06895336 1.7762802l-8.89718826 2.21856258c-.78719641.19609176-1.58371462-.28125706-1.7801549-1.06634047-.1964403-.78508525.28175694-1.58018843 1.06895335-1.7762802v-.00000183z"/>
        <path fill="rgb(255,170,0)" fill-rule="evenodd" d="M17.35547456 23.11256174c.47102833-.65841185 1.38799012-.81013192 2.0475722-.33994113l7.8877409 5.62441187c.6602997.47019262.81300707 1.38552753.34197874 2.04393938-.47102833.65841185-1.38799012.81084828-2.0475722.33994113l-7.8877409-5.62441187c-.6602997-.47019262-.81300707-1.38552754-.34197874-2.04393938z"/>
        <path fill="rgb(255,170,0)" fill-rule="evenodd" d="M30.50553428 14.31632236c.785763-.20038621 1.58514804.27266816 1.78589041 1.05703706l2.27555864 8.88498092c.20074237.7843689-.27315279 1.583052-1.05891579 1.78343822-.785763.20038622-1.58514803-.2733845-1.7858904-1.05703705L29.4466185 16.0997606c-.20074237-.7843689.27315278-1.58305018 1.05891578-1.7834364v-.00000183z"/>
      </g>
    </g>
  </g>
</svg>
